<svg xmlns="http://www.w3.org/2000/svg" width="800" height="450" viewBox="0 0 800 450">
  <defs>
    <linearGradient id="bg" x1="0" x2="1" y1="0" y2="1">
      <stop offset="0" stop-color="#0b1020"/>
      <stop offset="1" stop-color="#091a16"/>
    </linearGradient>
    <linearGradient id="accent" x1="0" x2="1">
      <stop offset="0" stop-color="#22d3ee"/>
      <stop offset="1" stop-color="#a855f7"/>
    </linearGradient>
  </defs>
  <rect width="800" height="450" fill="url(#bg)"/>
  <g opacity="0.25">
    <circle cx="110" cy="90" r="3" fill="#fff"/>
    <circle cx="210" cy="160" r="2" fill="#fff"/>
    <circle cx="700" cy="120" r="2" fill="#fff"/>
    <circle cx="620" cy="70" r="3" fill="#fff"/>
    <circle cx="560" cy="210" r="2" fill="#fff"/>
  </g>
  <g transform="translate(410 235) rotate(-18)">
    <path d="M0-110 C55-70 70-10 70 0 C70 10 55 70 0 110 C-55 70 -70 10 -70 0 C-70 -10 -55 -70 0 -110 Z" fill="url(#accent)" opacity="0.9"/>
    <circle cx="0" cy="-15" r="18" fill="#0b1020" opacity="0.9"/>
    <circle cx="0" cy="-15" r="10" fill="#22d3ee" opacity="0.7"/>
    <path d="M-70 0 L-115 25 L-85 0 L-115 -25 Z" fill="#ef4444" opacity="0.85"/>
    <path d="M70 0 L115 25 L85 0 L115 -25 Z" fill="#f59e0b" opacity="0.85"/>
    <path d="M0 110 C25 135 35 155 35 170 C0 160 -20 150 -35 170 C-35 155 -25 135 0 110 Z" fill="#fb7185" opacity="0.9"/>
  </g>
  <text x="40" y="60" font-family="ui-sans-serif,system-ui" font-size="28" fill="#e2e8f0" font-weight="700">ZeroKey ImagePack</text>
  <text x="40" y="95" font-family="ui-sans-serif,system-ui" font-size="16" fill="#94a3b8">Purchased output • Demo asset</text>
</svg>
